<svg width="57" height="58" viewBox="0 0 57 58" fill="none" xmlns="http://www.w3.org/2000/svg">
<path fill-rule="evenodd" clip-rule="evenodd" d="M42.984 10.3262H35.5016C34.9298 12.3226 34.9855 14.5018 35.6768 16.4609C35.7946 16.7973 35.9304 17.1262 36.0841 17.4463C36.9262 17.6275 37.7261 18.0456 38.3811 18.699C40.1904 20.5083 40.1904 23.4436 38.3811 25.2533C36.5718 27.0626 33.6365 27.0626 31.8268 25.2533C30.1155 23.542 30.0235 20.8241 31.5493 19.0024C31.4135 18.6899 31.2881 18.3701 31.175 18.0472C30.3074 15.5829 30.1079 12.8936 30.5968 10.3263H26.7668C25.7283 10.3263 24.8353 10.6962 24.1003 11.4308L1.10133 34.4298C-0.367109 35.8982 -0.367109 38.2932 1.10133 39.7617L17.3187 55.9791C18.7872 57.4476 21.1822 57.4476 22.6507 55.9791L45.6497 32.9802C46.3847 32.2452 46.7542 31.3516 46.7542 30.3136V14.0962C46.7542 12.0198 45.0608 10.3264 42.9843 10.3264L42.984 10.3262Z" fill="#767676"/>
<path fill-rule="evenodd" clip-rule="evenodd" d="M36.2979 20.205C35.4951 19.2179 34.8688 18.0939 34.446 16.8939C33.0515 12.9352 33.9749 8.39291 36.8951 5.35819C41.0134 1.07826 47.6398 1.11883 51.7558 5.38089C55.1513 8.89551 55.7415 14.1658 53.3811 18.4119C52.48 20.0328 51.1868 21.4212 49.6247 22.4219C49.1238 22.7432 48.9772 23.4181 49.2986 23.9191C49.6215 24.42 50.2948 24.5665 50.7958 24.2452C52.6564 23.0515 54.1957 21.3959 55.2704 19.4644C58.0954 14.3801 57.3787 8.0867 53.3161 3.88199C48.3434 -1.26721 40.3106 -1.31257 35.3343 3.85771C31.8408 7.48863 30.733 12.8747 32.4021 17.6145C32.9078 19.0483 33.6591 20.3881 34.6191 21.5683C34.9966 22.0302 35.6787 22.1011 36.1406 21.7252C36.604 21.3493 36.6749 20.6672 36.2974 20.2038L36.2979 20.205Z" fill="#767676"/>
</svg>
