<svg width="33" height="20" viewBox="0 0 33 20" fill="none" xmlns="http://www.w3.org/2000/svg">
<path d="M31.0975 7H26.1998C25.6717 7 25.2875 7.43206 25.2875 7.96021V18.9076C25.2875 19.4358 25.7195 19.8678 26.1998 19.8678H31.0975C31.6256 19.8678 32.0577 19.4358 32.0577 18.9076V7.96021C32.0577 7.43237 31.6256 7 31.0975 7ZM27.4481 7.76832H29.8968C29.9929 7.76832 30.0408 7.86444 30.0408 7.91234C30.0408 7.96023 29.9447 8.05635 29.8968 8.05635H27.4481C27.352 8.05635 27.3041 7.96023 27.3041 7.91234C27.3041 7.86444 27.3524 7.76832 27.4481 7.76832ZM28.6485 19.0038C28.3605 19.0038 28.1682 18.8119 28.1682 18.5235C28.1682 18.2355 28.3601 18.0432 28.6485 18.0432C28.9366 18.0432 29.1288 18.2352 29.1288 18.5235C29.1288 18.8119 28.9369 19.0038 28.6485 19.0038ZM31.6257 17.2274H25.7679V8.82473H31.6257V17.2274Z" fill="#767676"/>
<path d="M22.6632 0H0.624297C0.288029 0 0 0.288037 0 0.624297V15.9891C0 16.3254 0.288038 16.6134 0.624297 16.6134H22.6632C22.9994 16.6134 23.2875 16.3253 23.2875 15.9891V0.624297C23.2875 0.288363 22.9991 0 22.6632 0ZM10.4194 0.864441H12.868C12.9642 0.864441 13.012 0.960564 13.012 1.00846C13.012 1.05635 12.9159 1.15248 12.868 1.15248H10.4194C10.3232 1.15248 10.2753 1.05635 10.2753 1.00846C10.2753 0.960564 10.3232 0.864441 10.4194 0.864441ZM11.6677 15.7491C11.3796 15.7491 11.1874 15.5572 11.1874 15.2688C11.1874 14.9808 11.3793 14.7885 11.6677 14.7885C11.9557 14.7885 12.1479 14.9804 12.1479 15.2688C12.1479 15.5568 11.9078 15.7491 11.6677 15.7491ZM22.8551 13.9244H0.432152V2.11274H22.8551V13.9244Z" fill="#767676"/>
<path d="M14.1455 19.1499H13.3293L12.8973 17.6133H9.44018L9.00813 19.1499H8.19191C8.09579 19.1499 8 19.2461 8 19.3418C8 19.438 8.09612 19.5338 8.19191 19.5338H14.1459C14.242 19.5338 14.3378 19.4376 14.3378 19.3418C14.3374 19.2461 14.2416 19.1499 14.1455 19.1499H14.1455Z" fill="#767676"/>
</svg>
