<svg width="119" height="83" viewBox="0 0 119 83" fill="none" xmlns="http://www.w3.org/2000/svg">
<path d="M3.73953 52V24H18.0995V28.8H9.21953V35.48H17.1395V40.12H9.21953V47.36H18.2595V52H3.73953ZM21.9567 31.56H30.7967V35.76H24.5567L28.3567 41.4C30.0634 43.8267 31.0101 45.4933 31.1967 46.4C31.3034 46.8267 31.3567 47.2667 31.3567 47.72C31.3567 49.6133 30.6501 51.04 29.2367 52H19.0367V47.8H26.3567L22.0767 41.52C21.8901 41.2267 21.5967 40.8133 21.1967 40.28C20.8234 39.7467 20.5301 39.32 20.3167 39C20.1034 38.6533 19.9567 38.4 19.8767 38.24C19.7967 38.08 19.6901 37.88 19.5567 37.64C19.4234 37.3733 19.3301 37.1467 19.2767 36.96C19.1701 36.4533 19.1167 36.04 19.1167 35.72C19.1167 33.7733 20.0634 32.3867 21.9567 31.56ZM33.9411 43.08V35.76H31.1811V31.56H33.9411V26H39.2611V31.56H42.5411V35.76H39.2611V44.36C39.2611 45.9867 39.5411 47.1333 40.1011 47.8H42.5411V52H36.8611C35.4478 50.6933 34.5944 49.28 34.3011 47.76C34.0611 46.48 33.9411 44.92 33.9411 43.08ZM53.4467 42.76H49.1667C48.6067 43.4533 48.3267 44.32 48.3267 45.36C48.3267 46.4 48.6201 47.2133 49.2067 47.8H53.4467V42.76ZM44.8467 31.56H54.7667C56.3667 32.52 57.4201 33.6267 57.9267 34.88C58.4334 36.1067 58.6867 37.7867 58.6867 39.92V45.92C58.6867 48.1333 58.7401 50.16 58.8467 52H54.2867L53.5667 50.56C52.5267 51.52 51.0601 52 49.1667 52H46.6467C44.3801 50.5067 43.2467 48.36 43.2467 45.56C43.2467 42.7333 44.4067 40.5067 46.7267 38.88H50.4867C51.5267 38.88 52.5001 39.2 53.4067 39.84V37.84C53.4067 36.8 52.9534 36.1067 52.0467 35.76H44.8467V31.56ZM65.887 41.6C65.887 42.72 66.0604 43.8667 66.407 45.04C66.7537 46.1867 67.2337 47.1067 67.847 47.8H73.847V52H65.087C61.9404 49.4933 60.367 46.0267 60.367 41.6C60.367 37.1733 62.047 33.8267 65.407 31.56H73.847V35.76H67.847C66.5404 37.12 65.887 39.0667 65.887 41.6ZM75.313 52V31.56H80.593V52H75.313ZM75.313 24H80.593V29.4H75.313V24ZM94.9839 52H86.2639C83.5972 49.52 82.2639 46.1333 82.2639 41.84C82.2639 39.68 82.5572 37.8 83.1439 36.2C83.7572 34.6 84.7172 33.0533 86.0239 31.56H95.3839C96.7706 33.16 97.7172 34.72 98.2239 36.24C98.7306 37.7333 98.9839 39.6 98.9839 41.84C98.9839 46.1333 97.6506 49.52 94.9839 52ZM89.1039 47.8H92.1439C93.1039 45.9333 93.5839 43.8133 93.5839 41.44C93.5839 39.0667 93.0906 37.1733 92.1039 35.76H89.1039C88.1439 37.12 87.6639 39.0533 87.6639 41.56C87.6639 44.04 88.1439 46.12 89.1039 47.8ZM86.7039 26.92L93.5439 22.92L95.4239 27.04L88.3039 30.16L86.7039 26.92ZM109.527 31.56H113.767C114.941 33.0533 115.741 34.5467 116.167 36.04C116.594 37.5333 116.807 39.4 116.807 41.64V52H111.487V41.24C111.487 38.7067 111.141 36.88 110.447 35.76H105.967V52H100.647V31.56H104.807L105.527 33C106.114 32.4667 106.661 32.0933 107.167 31.88C107.701 31.6667 108.487 31.56 109.527 31.56ZM32.8756 55C34.7423 56.52 36.129 58.56 37.0356 61.12C37.9423 63.68 38.3956 66.32 38.3956 69.04C38.3956 71.7333 37.9556 74.2933 37.0756 76.72C36.1956 79.1467 34.7956 81.24 32.8756 83H24.6356C22.7156 81.24 21.3156 79.1467 20.4356 76.72C19.5556 74.2933 19.1156 71.7333 19.1156 69.04C19.1156 66.32 19.569 63.68 20.4756 61.12C21.3823 58.56 22.769 56.52 24.6356 55H32.8756ZM27.3156 78.36H30.1956C30.8623 77.5867 31.4223 76.3333 31.8756 74.6C32.3556 72.84 32.5956 70.9867 32.5956 69.04C32.5956 67.0933 32.369 65.2667 31.9156 63.56C31.4623 61.8267 30.9023 60.5733 30.2356 59.8H27.3156C26.649 60.5733 26.0756 61.8267 25.5956 63.56C25.1423 65.2667 24.9156 67.0933 24.9156 69.04C24.9156 70.9867 25.1423 72.84 25.5956 74.6C26.0756 76.3333 26.649 77.5867 27.3156 78.36ZM41.3153 74.08V66.76H38.5553V62.56H41.3153V57H46.6353V62.56H49.9153V66.76H46.6353V75.36C46.6353 76.9867 46.9153 78.1333 47.4753 78.8H49.9153V83H44.2353C42.822 81.6933 41.9686 80.28 41.6753 78.76C41.4353 77.48 41.3153 75.92 41.3153 74.08ZM60.8209 73.76H56.5409C55.9809 74.4533 55.7009 75.32 55.7009 76.36C55.7009 77.4 55.9943 78.2133 56.5809 78.8H60.8209V73.76ZM52.2209 62.56H62.1409C63.7409 63.52 64.7943 64.6267 65.3009 65.88C65.8076 67.1067 66.0609 68.7867 66.0609 70.92V76.92C66.0609 79.1333 66.1143 81.16 66.2209 83H61.6609L60.9409 81.56C59.9009 82.52 58.4343 83 56.5409 83H54.0209C51.7543 81.5067 50.6209 79.36 50.6209 76.56C50.6209 73.7333 51.7809 71.5067 54.1009 69.88H57.8609C58.9009 69.88 59.8743 70.2 60.7809 70.84V68.84C60.7809 67.8 60.3276 67.1067 59.4209 66.76H52.2209V62.56ZM68.3013 83V55H73.6213V69.84H74.1813L77.9413 62.56H83.1413L78.4213 71.48L83.1813 83H77.9013L74.2213 74.04H73.6213V83H68.3013ZM90.8219 83H86.6219C85.4485 81.5067 84.6485 80.0133 84.2219 78.52C83.7952 77.0267 83.5819 75.16 83.5819 72.92V62.56H88.9019V73.32C88.9019 75.7467 89.3819 77.5733 90.3419 78.8H94.0619V62.56H99.3819V83H95.1819L94.4619 81.56C93.4485 82.52 92.2352 83 90.8219 83Z" fill="white"/>

</svg>
