<svg width="14" height="8" viewBox="0 0 14 8" fill="none" xmlns="http://www.w3.org/2000/svg">
<path fill-rule="evenodd" clip-rule="evenodd" d="M12.8546 6.85482C12.8081 6.90138 12.7529 6.93832 12.6922 6.96353C12.6315 6.98873 12.5663 7.00171 12.5006 7.00171C12.4348 7.00171 12.3697 6.98873 12.3089 6.96353C12.2482 6.93832 12.193 6.90138 12.1466 6.85482L6.50057 1.20782L0.854571 6.85482C0.808083 6.9013 0.752894 6.93818 0.692155 6.96334C0.631415 6.9885 0.566315 7.00145 0.500571 7.00145C0.434827 7.00145 0.369727 6.9885 0.308988 6.96334C0.248248 6.93818 0.193059 6.9013 0.146571 6.85482C0.100083 6.80833 0.0632069 6.75314 0.0380478 6.6924C0.0128887 6.63166 -6.01195e-05 6.56656 -6.01253e-05 6.50082C-6.0131e-05 6.43507 0.0128886 6.36997 0.0380477 6.30923C0.0632068 6.24849 0.100083 6.1933 0.146571 6.14682L6.14657 0.146816C6.19302 0.100253 6.24819 0.0633101 6.30894 0.0381037C6.36968 0.0128972 6.4348 -7.76272e-05 6.50057 -7.7633e-05C6.56634 -7.76387e-05 6.63146 0.0128972 6.6922 0.0381037C6.75295 0.0633101 6.80813 0.100253 6.85457 0.146816L12.8546 6.14682C12.9011 6.19326 12.9381 6.24844 12.9633 6.30918C12.9885 6.36993 13.0015 6.43505 13.0015 6.50082C13.0015 6.56658 12.9885 6.6317 12.9633 6.69245C12.9381 6.75319 12.9011 6.80837 12.8546 6.85482Z" fill="white"/>
</svg>
