<svg width="232" height="113" viewBox="0 0 232 113" fill="none" xmlns="http://www.w3.org/2000/svg">
<path d="M2.4 75V40H20.35V46H9.25V54.35H19.15V60.15H9.25V69.2H20.55V75H2.4ZM25.1715 49.45H36.2215V54.7H28.4215L33.1715 61.75C35.3048 64.7833 36.4882 66.8667 36.7215 68C36.8548 68.5333 36.9215 69.0833 36.9215 69.65C36.9215 72.0167 36.0382 73.8 34.2715 75H21.5215V69.75H30.6715L25.3215 61.9C25.0882 61.5333 24.7215 61.0167 24.2215 60.35C23.7548 59.6833 23.3882 59.15 23.1215 58.75C22.8548 58.3167 22.6715 58 22.5715 57.8C22.4715 57.6 22.3382 57.35 22.1715 57.05C22.0048 56.7167 21.8882 56.4333 21.8215 56.2C21.6882 55.5667 21.6215 55.05 21.6215 54.65C21.6215 52.2167 22.8048 50.4833 25.1715 49.45ZM40.152 63.85V54.7H36.702V49.45H40.152V42.5H46.802V49.45H50.902V54.7H46.802V65.45C46.802 67.4833 47.152 68.9167 47.852 69.75H50.902V75H43.802C42.0353 73.3667 40.9686 71.6 40.602 69.7C40.302 68.1 40.152 66.15 40.152 63.85ZM64.534 63.45H59.184C58.484 64.3167 58.134 65.4 58.134 66.7C58.134 68 58.5007 69.0167 59.234 69.75H64.534V63.45ZM53.784 49.45H66.184C68.184 50.65 69.5007 52.0333 70.134 53.6C70.7673 55.1333 71.084 57.2333 71.084 59.9V67.4C71.084 70.1667 71.1507 72.7 71.284 75H65.584L64.684 73.2C63.384 74.4 61.5507 75 59.184 75H56.034C53.2007 73.1333 51.784 70.45 51.784 66.95C51.784 63.4167 53.234 60.6333 56.134 58.6H60.834C62.134 58.6 63.3507 59 64.484 59.8V57.3C64.484 56 63.9173 55.1333 62.784 54.7H53.784V49.45ZM80.0844 62C80.0844 63.4 80.301 64.8333 80.7344 66.3C81.1677 67.7333 81.7677 68.8833 82.5344 69.75H90.0344V75H79.0844C75.151 71.8667 73.1844 67.5333 73.1844 62C73.1844 56.4667 75.2844 52.2833 79.4844 49.45H90.0344V54.7H82.5344C80.901 56.4 80.0844 58.8333 80.0844 62ZM91.8668 75V49.45H98.4668V75H91.8668ZM91.8668 40H98.4668V46.75H91.8668V40ZM116.455 75H105.555C102.222 71.9 100.555 67.6667 100.555 62.3C100.555 59.6 100.922 57.25 101.655 55.25C102.422 53.25 103.622 51.3167 105.255 49.45H116.955C118.689 51.45 119.872 53.4 120.505 55.3C121.139 57.1667 121.455 59.5 121.455 62.3C121.455 67.6667 119.789 71.9 116.455 75ZM109.105 69.75H112.905C114.105 67.4167 114.705 64.7667 114.705 61.8C114.705 58.8333 114.089 56.4667 112.855 54.7H109.105C107.905 56.4 107.305 58.8167 107.305 61.95C107.305 65.05 107.905 67.65 109.105 69.75ZM106.105 43.65L114.655 38.65L117.005 43.8L108.105 47.7L106.105 43.65ZM134.635 49.45H139.935C141.401 51.3167 142.401 53.1833 142.935 55.05C143.468 56.9167 143.735 59.25 143.735 62.05V75H137.085V61.55C137.085 58.3833 136.651 56.1 135.785 54.7H130.185V75H123.535V49.45H128.735L129.635 51.25C130.368 50.5833 131.051 50.1167 131.685 49.85C132.351 49.5833 133.335 49.45 134.635 49.45ZM18.7 78C21.0333 79.9 22.7667 82.45 23.9 85.65C25.0333 88.85 25.6 92.15 25.6 95.55C25.6 98.9167 25.05 102.117 23.95 105.15C22.85 108.183 21.1 110.8 18.7 113H8.4C6 110.8 4.25 108.183 3.15 105.15C2.05 102.117 1.5 98.9167 1.5 95.55C1.5 92.15 2.06667 88.85 3.2 85.65C4.33333 82.45 6.06667 79.9 8.4 78H18.7ZM11.75 107.2H15.35C16.1833 106.233 16.8833 104.667 17.45 102.5C18.05 100.3 18.35 97.9833 18.35 95.55C18.35 93.1167 18.0667 90.8333 17.5 88.7C16.9333 86.5333 16.2333 84.9667 15.4 84H11.75C10.9167 84.9667 10.2 86.5333 9.6 88.7C9.03333 90.8333 8.75 93.1167 8.75 95.55C8.75 97.9833 9.03333 100.3 9.6 102.5C10.2 104.667 10.9167 106.233 11.75 107.2ZM29.2496 101.85V92.7H25.7996V87.45H29.2496V80.5H35.8996V87.45H39.9996V92.7H35.8996V103.45C35.8996 105.483 36.2496 106.917 36.9496 107.75H39.9996V113H32.8996C31.1329 111.367 30.0663 109.6 29.6996 107.7C29.3996 106.1 29.2496 104.15 29.2496 101.85ZM53.6316 101.45H48.2816C47.5816 102.317 47.2316 103.4 47.2316 104.7C47.2316 106 47.5983 107.017 48.3316 107.75H53.6316V101.45ZM42.8816 87.45H55.2816C57.2816 88.65 58.5983 90.0333 59.2316 91.6C59.865 93.1333 60.1816 95.2333 60.1816 97.9V105.4C60.1816 108.167 60.2483 110.7 60.3816 113H54.6816L53.7816 111.2C52.4816 112.4 50.6483 113 48.2816 113H45.1316C42.2983 111.133 40.8816 108.45 40.8816 104.95C40.8816 101.417 42.3316 98.6333 45.2316 96.6H49.9316C51.2316 96.6 52.4483 97 53.5816 97.8V95.3C53.5816 94 53.015 93.1333 51.8816 92.7H42.8816V87.45ZM62.982 113V78H69.632V96.55H70.332L75.032 87.45H81.532L75.632 98.6L81.582 113H74.982L70.382 101.8H69.632V113H62.982ZM91.1328 113H85.8828C84.4161 111.133 83.4161 109.267 82.8828 107.4C82.3495 105.533 82.0828 103.2 82.0828 100.4V87.45H88.7328V100.9C88.7328 103.933 89.3328 106.217 90.5328 107.75H95.1828V87.45H101.833V113H96.5828L95.6828 111.2C94.4161 112.4 92.8995 113 91.1328 113Z" fill="white"/>
<path d="M13.58 14.74V22.46C13.58 25.36 13.44 29.1 11.74 31.66C12.28 31.88 13.26 32.48 13.66 32.86C15.52 30.1 15.78 25.64 15.78 22.46V14.74H13.58ZM18.66 22.58L16.58 22.9C17.24 27.36 18.38 30.9 21.06 32.86C21.4 32.24 22.12 31.36 22.64 30.9C20.3 29.4 19.18 26.22 18.66 22.58ZM14.72 14.74V16.94H19.56V21.48H14.72V23.68H21.72V14.74H14.72ZM5.66 17.82V19.64H11.86V17.82H5.66ZM5.66 20.84V22.64H11.86V20.84H5.66ZM4.52 23.86V25.72H11.36V23.86H4.52ZM7.8 15.9V24.92H9.72V15.9H7.8ZM8.7 26.56C9.08 27.38 9.48 28.46 9.6 29.16L10.6 28.78C10.46 28.1 10.06 27.04 9.64 26.24L8.7 26.56ZM7.32 26.86C7.62 27.88 7.88 29.24 7.92 30.12L9 29.9C8.94 29.02 8.68 27.68 8.34 26.68L7.32 26.86ZM5.92 27C6.08 28.18 6.14 29.7 6.08 30.72L7.18 30.56C7.24 29.58 7.14 28.06 6.96 26.88L5.92 27ZM4.4 26.52C4.32 28.3 4.08 30.04 3.34 31.08L4.56 31.74C5.4 30.6 5.6 28.68 5.72 26.76L4.4 26.52ZM4.52 14.74V24.68H6.52V16.68H12.18V14.74H4.52ZM10.52 23.86V24.2C10.36 28.72 10.14 30.34 9.82 30.72C9.68 30.92 9.52 30.98 9.28 30.98C9.04 30.98 8.58 30.96 8.04 30.9C8.32 31.42 8.5 32.22 8.54 32.78C9.26 32.8 9.92 32.8 10.34 32.74C10.84 32.66 11.18 32.5 11.54 32.02C12.04 31.4 12.26 29.5 12.48 24.68C12.5 24.42 12.52 23.86 12.52 23.86H10.52Z" fill="white"/>
</svg>
